HIERARCHY
ROOT Hips
{
	OFFSET 0.000000 0.000000 0.000000
	CHANNELS 6 Xposition Yposition Zposition Zrotation Yrotation Xrotation 
	JOINT LHipJoint
	{
		OFFSET 0.000000 0.000000 0.000000
		CHANNELS 3 Zrotation Yrotation Xrotation
		JOINT LeftUpLeg
		{
			OFFSET 1.363060 -1.794630 0.839290
			CHANNELS 3 Zrotation Yrotation Xrotation
			JOINT LeftLeg
			{
				OFFSET 2.448110 -6.726130 0.000000
				CHANNELS 3 Zrotation Yrotation Xrotation
				JOINT LeftFoot
				{
					OFFSET 2.562200 -7.039590 0.000000
					CHANNELS 3 Zrotation Yrotation Xrotation
					JOINT LeftToeBase
					{
						OFFSET 0.157640 -0.433110 2.322550
						CHANNELS 3 Zrotation Yrotation Xrotation
						End Site
						{
							OFFSET 0.000000 0.000000 0.000000
						}
					}
				}
			}
		}
	}
	JOINT RHipJoint
	{
		OFFSET 0.000000 0.000000 0.000000
		CHANNELS 3 Zrotation Yrotation Xrotation
		JOINT RightUpLeg
		{
			OFFSET -1.305520 -1.794630 0.839290
			CHANNELS 3 Zrotation Yrotation Xrotation
			JOINT RightLeg
			{
				OFFSET -2.542530 -6.985550 0.000000
				CHANNELS 3 Zrotation Yrotation Xrotation
				JOINT RightFoot
				{
					OFFSET -2.568260 -7.056230 0.000000
					CHANNELS 3 Zrotation Yrotation Xrotation
					JOINT RightToeBase
					{
						OFFSET -0.164730 -0.452590 2.363150
						CHANNELS 3 Zrotation Yrotation Xrotation
						End Site
						{
							OFFSET 0.000000 0.000000 0.000000
						}
					}
				}
			}
		}
	}
}
MOTION
Frames: 33
Frame Time: 0.008333
-3.210749 16.860982 0.053082 119.269254 85.365124 138.006757 -11.243031 4.036584 2.599023 -12.198870 -0.809051 -1.602296 -1.957725 0.411250 18.076719 -0.459001 -6.643123 2.670957 -0.731500 0.000000 -63.194500 8.637261 -0.909422 3.215164 6.710250 -2.948488 -46.199437 2.757211 -1.463072 22.121132 0.430070 2.615838 3.676588 0.038900 -0.000000 -40.144201
-3.044330 16.808028 0.044362 116.941905 85.709967 135.670317 -11.403380 4.067904 2.558246 -11.925638 -0.526550 -1.618001 -1.857721 0.483187 19.205266 -0.437169 -6.591315 2.594859 -0.723500 0.000000 -64.817301 8.504373 -0.943347 3.264572 6.635515 -1.939553 -47.247899 2.503088 -1.825791 26.077336 0.265711 2.148244 1.774545 -0.068500 0.000000 -37.540500
-2.883046 16.761757 0.032792 116.747230 86.057320 135.399595 -11.562281 4.075147 2.485187 -11.525665 -0.219504 -1.689235 -1.732097 0.569967 20.540107 -0.417010 -6.609798 2.660861 -0.740000 -0.000000 -66.435000 8.381781 -0.992039 3.261114 6.710684 -1.103981 -47.924163 2.291185 -2.125318 29.491448 0.105506 1.689500 0.010493 -0.143400 0.000000 -35.897500
-2.726539 16.722952 0.019280 120.428860 86.366641 138.960147 -11.679569 4.045668 2.393743 -11.014135 0.039817 -1.830078 -1.576735 0.661883 22.077987 -0.397650 -6.670204 2.881932 -0.778900 -0.000000 -67.879000 8.297898 -1.073125 3.219559 6.928612 -0.501648 -48.255947 2.140307 -2.372904 32.273623 -0.048826 1.236495 -1.601521 -0.191399 -0.000000 -35.247700
-2.575089 16.692386 0.003160 131.762505 86.641039 150.116880 -11.648879 3.973100 2.270482 -10.308486 0.250645 -2.029792 -1.386961 0.753403 23.821374 -0.379651 -6.782927 3.289710 -0.846900 -0.000000 -69.223599 8.339757 -1.189849 3.146406 7.366231 -0.160314 -48.230208 2.068935 -2.592319 34.376427 -0.200037 0.775563 -3.062440 -0.218200 -0.000000 -35.423700
-2.427687 16.669749 -0.013224 150.607051 86.975195 168.783003 -11.340854 4.000959 2.140807 -9.493334 0.374073 -2.350502 -1.226869 0.890276 25.681822 -0.349983 -6.841192 3.831554 -0.932700 0.000000 -70.130900 8.649280 -1.158145 3.031906 8.010315 -0.000986 -47.908017 2.041779 -2.747649 35.860449 -0.336349 0.338830 -4.353778 -0.226099 0.000000 -36.275100
-2.284076 16.654879 -0.029533 169.441316 87.488965 -172.533826 -11.120467 4.267734 2.063827 -8.764942 0.489284 -2.868917 -1.152443 1.134040 27.546014 -0.288625 -6.766634 4.503765 -1.031700 0.000000 -70.517599 8.946880 -0.859903 2.801491 8.725113 0.053548 -47.296212 1.999673 -2.739656 36.873433 -0.434387 0.002001 -5.452283 -0.219100 -0.000001 -37.511400
-2.143733 16.647291 -0.045065 -178.967249 87.662287 -161.092907 -11.253165 4.502234 2.057330 -8.203984 0.480978 -3.492666 -1.055926 1.375015 29.467395 -0.209178 -6.580744 5.317816 -1.131900 0.000000 -70.230200 8.940767 -0.642362 2.508356 9.310567 -0.196500 -46.527756 1.985032 -2.660362 37.479541 -0.510435 -0.252093 -6.409758 -0.200700 0.000000 -38.843700
-2.006179 16.646409 -0.059409 -173.507449 87.354121 -155.793766 -11.458317 4.609582 2.082680 -7.699753 0.300424 -4.159748 -0.904933 1.562225 31.478588 -0.123582 -6.292990 6.214210 -1.217300 0.000000 -69.134200 8.844176 -0.584932 2.219274 9.821745 -0.766747 -45.678315 2.024462 -2.594190 37.697538 -0.580379 -0.470374 -7.243987 -0.175100 -0.000000 -40.029100
-1.870925 16.651603 -0.072377 -171.476702 86.747295 -153.916425 -11.617777 4.646767 2.129015 -7.241386 -0.009715 -4.882395 -0.728142 1.711766 33.540988 -0.030437 -5.872129 7.115974 -1.269100 -0.000000 -67.132300 8.770265 -0.604462 1.944922 10.283404 -1.556520 -44.783892 2.098597 -2.538096 37.613518 -0.641697 -0.653075 -7.943772 -0.146400 -0.000000 -40.913800
-1.737661 16.662257 -0.084243 -171.049179 85.984645 -153.621394 -11.731624 4.648512 2.191506 -6.836367 -0.387975 -5.679124 -0.544903 1.835755 35.624434 0.070565 -5.306315 7.949394 -1.271200 -0.000000 -64.196400 8.728068 -0.657544 1.690971 10.691886 -2.464508 -43.876210 2.188185 -2.482294 37.316336 -0.693165 -0.807002 -8.498892 -0.119200 0.000000 -41.452000
-1.606104 16.677751 -0.095316 -171.359162 85.149051 -154.032163 -11.812470 4.627001 2.264018 -6.494802 -0.781540 -6.560110 -0.365046 1.938620 37.707500 0.177502 -4.595698 8.649596 -1.211700 -0.000000 -60.392799 8.710946 -0.728474 1.467342 11.034945 -3.406712 -42.991348 2.279654 -2.425181 36.887685 -0.736018 -0.944367 -8.910928 -0.096400 0.000000 -41.680900
-1.476109 16.697541 -0.105835 -172.004392 84.296569 -154.738494 -11.869461 4.586487 2.338838 -6.224662 -1.144967 -7.528170 -0.193940 2.022597 39.769937 0.287998 -3.749080 9.172525 -1.086600 0.000000 -55.959100 8.713389 -0.810177 1.283340 11.302688 -4.312917 -42.160105 2.363333 -2.368742 36.398103 -0.772718 -1.078852 -9.191378 -0.079800 0.000000 -41.688699
-1.347769 16.721158 -0.116363 -172.713401 83.472292 -155.465866 -11.913117 4.529483 2.407282 -6.018092 -1.434846 -8.583315 -0.034905 2.090834 41.794377 0.399910 -2.790071 9.495363 -0.901900 -0.000000 -51.236901 8.727395 -0.899022 1.145435 11.501221 -5.118354 -41.395174 2.432969 -2.313340 35.891031 -0.807555 -1.231675 -9.354316 -0.070200 0.000000 -41.591000
-1.221260 16.748199 -0.127212 -173.385018 82.707497 -156.114555 -11.948478 4.457140 2.461773 -5.870906 -1.625172 -9.715055 0.110651 2.146165 43.760730 0.512015 -1.744936 9.624153 -0.670301 0.000000 -46.658799 8.748824 -0.991960 1.054683 11.636184 -5.784477 -40.698138 2.485505 -2.259629 35.392908 -0.843986 -1.417083 -9.418854 -0.067801 -0.000000 -41.501400
-1.096826 16.778394 -0.138825 -173.930101 82.022936 -156.600325 -11.981444 4.371103 2.496319 -5.768164 -1.700110 -10.911208 0.241923 2.192394 45.654176 0.623319 -0.648294 9.576921 -0.409400 -0.000000 -42.586300 8.771690 -1.087026 1.008303 11.723937 -6.286810 -40.054079 2.520602 -2.205474 34.901787 -0.885922 -1.652063 -9.400018 -0.072800 0.000000 -41.522800
-0.974838 16.811410 -0.151162 -174.379560 81.423983 -156.966965 -12.011164 4.272243 2.506568 -5.710074 -1.664783 -12.144943 0.359023 2.232409 47.457785 0.733219 0.470790 9.385543 -0.135600 -0.000000 -39.314100 8.795837 -1.180985 0.995958 11.768441 -6.640796 -39.440832 2.540332 -2.150182 34.409205 -0.934012 -1.935616 -9.315074 -0.084800 0.000001 -41.724300
-0.855576 16.847002 -0.164207 -174.734703 80.906089 -157.229308 -12.038694 4.162375 2.490294 -5.687528 -1.531032 -13.391908 0.461876 2.269571 49.160523 0.840468 1.579613 9.074583 0.135100 0.000000 -36.933900 8.818960 -1.271624 1.005492 11.780679 -6.871417 -38.826284 2.548201 -2.090808 33.887440 -0.988953 -2.268922 -9.174080 -0.104300 -0.000000 -42.144400
-0.739292 16.884877 -0.177784 -175.033285 80.454812 -157.441555 -12.062844 4.043296 2.447370 -5.697304 -1.320696 -14.624812 0.550672 2.306356 50.750506 0.943632 2.651265 8.666801 0.390300 0.000000 -35.415300 8.841004 -1.356628 1.021969 11.766445 -7.022894 -38.177027 2.548543 -2.025119 33.307484 -1.049621 -2.644531 -8.985015 -0.131200 0.000000 -42.780601
-0.626011 16.924701 -0.191753 -175.297396 80.049812 -157.638189 -12.083484 3.917224 2.380393 -5.731978 -1.059387 -15.822812 0.625778 2.344561 52.216787 1.041229 3.662854 8.182403 0.620200 -0.000000 -34.648700 8.861033 -1.434721 1.032412 11.734114 -7.137697 -37.461731 2.545622 -1.950232 32.636560 -1.114950 -3.056814 -8.751201 -0.166400 -0.000001 -43.593700
-0.515669 16.966062 -0.205638 -175.618018 79.666255 -157.923894 -12.096205 3.786317 2.294276 -5.801737 -0.781376 -16.959722 0.687990 2.383823 53.544255 1.132322 4.604551 7.641159 0.820600 0.000000 -34.475300 8.883335 -1.503650 1.022413 11.676990 -7.277764 -36.661277 2.543396 -1.866699 31.862476 -1.180358 -3.481750 -8.478829 -0.209099 0.000000 -44.504600
-0.408055 17.008564 -0.219904 -175.905380 79.284596 -158.210085 -12.106883 3.652299 2.193594 -5.876822 -0.502762 -18.036687 0.737585 2.425624 54.726554 1.215451 5.457489 7.056725 0.985800 -0.000001 -34.753400 8.900834 -1.565746 0.988828 11.620387 -7.444185 -35.748578 2.543982 -1.769185 30.945527 -1.248381 -3.935838 -8.159836 -0.262000 0.000000 -45.437000
-0.302676 17.051620 -0.233848 -176.317467 78.882776 -158.661047 -12.106575 3.517492 2.087105 -5.991330 -0.261209 -19.032017 0.775551 2.466096 55.745920 1.290923 6.232232 6.443078 1.119500 0.000000 -35.281700 8.924124 -1.618141 0.921751 11.537589 -7.704843 -34.737165 2.549347 -1.663631 29.915452 -1.309999 -4.371515 -7.804283 -0.321900 0.000000 -46.286600
-0.198974 17.094680 -0.247710 -176.823805 78.448978 -159.240086 -12.096698 3.383679 1.981883 -6.139319 -0.070754 -19.952764 0.802081 2.503790 56.596477 1.358499 6.927949 5.804702 1.222200 -0.000000 -35.896600 8.952145 -1.662501 0.823734 11.434183 -8.061040 -33.635473 2.559372 -1.550297 28.777606 -1.363739 -4.783105 -7.408628 -0.389400 0.000000 -46.990400
-0.096410 17.137252 -0.261811 -177.392465 77.978574 -159.908270 -12.078077 3.252453 1.883298 -6.317768 0.063458 -20.806214 0.816951 2.537129 57.274024 1.418124 7.547030 5.138720 1.294699 -0.000000 -36.417900 8.984519 -1.700781 0.699509 11.313419 -8.506073 -32.459484 2.573081 -1.430991 27.551090 -1.407640 -5.161714 -6.970597 -0.464000 0.000001 -47.518000
0.005704 17.178774 -0.276439 -178.013910 77.472365 -160.643162 -12.049855 3.124978 1.797483 -6.532706 0.139000 -21.607767 0.820058 2.563664 57.778370 1.470422 8.097157 4.441180 1.339200 -0.000000 -36.721400 9.022810 -1.734668 0.557453 11.172029 -9.028966 -31.244784 2.588995 -1.309690 26.273834 -1.439109 -5.492556 -6.492544 -0.544100 -0.000000 -47.876500
0.107969 17.218759 -0.292065 -178.650848 76.937929 -161.394550 -12.012560 3.002099 1.728017 -6.782914 0.164305 -22.374383 0.810951 2.581837 58.113527 1.515923 8.583516 3.702436 1.356300 -0.000000 -36.694500 9.066699 -1.766790 0.407779 11.012647 -9.605193 -30.025046 2.605446 -1.189917 24.983585 -1.457223 -5.768526 -5.977271 -0.628300 0.000000 -48.109400
0.210802 17.256858 -0.309233 -179.263029 76.386964 -162.110219 -11.967040 2.884032 1.676644 -7.064686 0.153439 -23.124585 0.789218 2.590675 58.287422 1.555325 9.010419 2.913277 1.346100 0.000000 -36.283001 9.115121 -1.799918 0.260896 10.840894 -10.205496 -28.833773 2.621099 -1.075063 23.717970 -1.462108 -5.986536 -5.429913 -0.714700 0.000001 -48.285200
0.314558 17.292813 -0.328438 -179.818821 75.832072 -162.747979 -11.914082 2.770714 1.643914 -7.373186 0.122423 -23.875402 0.754590 2.589608 58.310340 1.589481 9.381430 2.066922 1.308800 0.000000 -35.480000 9.166889 -1.836603 0.125998 10.663147 -10.802903 -27.701490 2.635223 -0.968160 22.511545 -1.454478 -6.145476 -4.857815 -0.801100 0.000001 -48.482700
0.419397 17.326489 -0.350156 179.706771 75.285057 -163.276474 -11.854603 2.661777 1.628918 -7.701635 0.087068 -24.639655 0.706986 2.578686 58.193781 1.619348 9.699169 1.160615 1.244900 0.000000 -34.327800 9.220450 -1.878921 0.009446 10.487366 -11.375998 -26.649689 2.647682 -0.871311 21.389823 -1.435751 -6.248058 -4.268501 -0.885500 0.000000 -48.777700
0.525307 17.357815 -0.374707 179.331918 74.754680 -163.675251 -11.789615 2.556743 1.629839 -8.042414 0.060278 -25.424935 0.646635 2.558480 57.949449 1.646000 9.965959 0.197623 1.155500 0.000000 -32.908900 9.274145 -1.928233 -0.085782 10.321400 -11.911856 -25.689125 2.658868 -0.785474 20.366670 -1.407697 -6.299820 -3.668089 -0.966500 0.000000 -49.231100
0.632222 17.386840 -0.402257 179.060842 74.244624 -163.941552 -11.719778 2.455247 1.644697 -8.389268 0.049246 -26.232956 0.574113 2.529807 57.587741 1.670658 10.184983 -0.812018 1.043301 0.000000 -31.337601 9.326865 -1.984871 -0.160373 10.170734 -12.409219 -24.821231 2.669478 -0.710756 19.446005 -1.372048 -6.307244 -3.061106 -1.042700 0.000000 -49.878801
0.739855 17.413630 -0.432821 178.899895 73.753457 -164.075819 -11.646232 2.356846 1.670482 -8.733822 0.057440 -27.058083 0.490278 2.493967 57.116597 1.694349 10.358753 -1.852721 0.912100 0.000000 -29.734200 9.376971 -2.048642 -0.218046 10.041161 -12.871002 -24.031522 2.680013 -0.645650 18.615151 -1.331343 -6.283499 -2.447507 -1.114901 -0.000000 -50.728300
